<svg xmlns="http://www.w3.org/2000/svg" aria-hidden="true" style="position:absolute;width:0;height:0;overflow:hidden">
  <defs>
    <symbol id="arrow-up" viewBox="0 0 31 32">
      <path fill="currentColor" d="M10.56 5.44h14.4a.96.96 0 0 1 .96.96v14.4a.96.96 0 0 1-1.92 0V8.718L6.439 26.279a.96.96 0 0 1-1.358-1.358L22.642 7.36H10.56a.96.96 0 0 1 0-1.92z"/>
    </symbol>
    <symbol id="arrow-down" viewBox="0 0 32 32">
      <path fill="none" stroke="#fff" stroke-linecap="round" stroke-linejoin="round" stroke-width="2.56" d="M8.32 12.16 16 19.84l7.68-7.68" style="stroke:var(--color2, #fff)"/>
    </symbol>
    <symbol id="twitter" viewBox="0 0 32 32">
      <path fill="#fff" d="M28.078 9.574c.012.282.012.55.012.832.012 8.538-6.26 18.394-17.731 18.394a17.273 17.273 0 0 1-9.557-2.906 12.23 12.23 0 0 0 9.224-2.688c-2.667-.051-5.013-1.856-5.828-4.493a5.818 5.818 0 0 0 2.815-.115c-2.902-.589-4.988-3.238-5.001-6.323v-.077c.864.499 1.84.781 2.828.806-2.729-1.894-3.581-5.67-1.926-8.627 3.173 4.045 7.841 6.49 12.854 6.758-.506-2.24.185-4.595 1.803-6.182 2.507-2.445 6.458-2.317 8.829.282a12.147 12.147 0 0 0 3.964-1.574 6.472 6.472 0 0 1-2.741 3.571 12.495 12.495 0 0 0 3.581-1.011 13.04 13.04 0 0 1-3.124 3.354z" style="fill:var(--color2, #fff)"/>
    </symbol>
    <symbol id="instagram" viewBox="0 0 32 32">
      <path fill="#fff" d="M18.05 16.304c0 5.028-4.041 9.103-9.025 9.103S0 21.33 0 16.304C0 11.277 4.041 7.2 9.025 7.2s9.025 4.076 9.025 9.104zM27.952 16.304c0 4.732-2.02 8.57-4.513 8.57s-4.513-3.838-4.513-8.57 2.02-8.57 4.512-8.57 4.513 3.837 4.513 8.57zM32.002 16.304c0 4.239-.711 7.678-1.587 7.678s-1.587-3.438-1.587-7.678.71-7.678 1.587-7.678c.876 0 1.587 3.437 1.587 7.678z" style="fill:var(--color2, #fff)"/>
    </symbol>
    <symbol id="linkedin" viewBox="0 0 32 32">
      <path fill="#fff" d="M27.821 2.133H4.182a2.048 2.048 0 0 0-2.048 2.048V27.82a2.048 2.048 0 0 0 2.048 2.048h23.639a2.048 2.048 0 0 0 2.048-2.048V4.181a2.048 2.048 0 0 0-2.048-2.048zM10.402 25.759h-4.17V12.514h4.17v13.245zm-2.088-15.08A2.396 2.396 0 0 1 5.981 7.81a2.39 2.39 0 0 1 1.885-1.873 2.391 2.391 0 0 1 2.855 2.351 2.358 2.358 0 0 1-2.407 2.393zM25.77 25.77h-4.168v-7.236c0-2.134-.907-2.793-2.078-2.793-1.237 0-2.45.932-2.45 2.847v7.182h-4.17V12.524h4.01v1.835h.054c.403-.815 1.812-2.207 3.963-2.207 2.327 0 4.84 1.381 4.84 5.425l-.002 8.193z" style="fill:var(--color2, #fff)"/>
    </symbol>
    <symbol id="four-circles" viewBox="0 0 32 32">
      <path fill="#404040" d="M16 9.6c0 3.535-2.865 6.4-6.4 6.4s-6.4-2.865-6.4-6.4 2.865-6.4 6.4-6.4S16 6.065 16 9.6z" style="fill:var(--color3, #404040)"/>
      <path fill="#ffd11a" d="M28.8 9.6c0 3.535-2.865 6.4-6.4 6.4S16 13.135 16 9.6s2.865-6.4 6.4-6.4 6.4 2.865 6.4 6.4z" style="fill:var(--color1, #ffd11a)"/>
      <path fill="#404040" d="M28.8 22.4c0 3.535-2.865 6.4-6.4 6.4S16 25.935 16 22.4s2.865-6.4 6.4-6.4 6.4 2.865 6.4 6.4z" style="fill:var(--color3, #404040)"/>
      <path fill="#ffd11a" d="M16 22.4c0 3.535-2.865 6.4-6.4 6.4s-6.4-2.865-6.4-6.4S6.065 16 9.6 16s6.4 2.865 6.4 6.4z" style="fill:var(--color1, #ffd11a)"/>
    </symbol>
    <symbol id="propeller" viewBox="0 0 32 32">
      <path fill="#404040" d="M3.2 12a8.801 8.801 0 0 0 5.129 8H3.2A8.8 8.8 0 0 0 20 23.671V28.8A8.8 8.8 0 0 0 23.671 12H28.8A8.8 8.8 0 0 0 12 8.329V3.2A8.8 8.8 0 0 0 3.2 12z" style="fill:var(--color3, #404040)"/>
      <path fill="#ffd11a" d="M20 16a4 4 0 1 1-8 0 4 4 0 0 1 8 0z" style="fill:var(--color1, #ffd11a)"/>
    </symbol>
    <symbol id="minus" viewBox="0 0 32 32">
      <path fill="#fff" d="M25.333 14.667H6.666a1.334 1.334 0 0 0 0 2.668h18.667a1.334 1.334 0 0 0 0-2.668z" style="fill:var(--color2, #fff)"/>
    </symbol>
    <symbol id="plus" viewBox="0 0 32 32">
      <path fill="#ffd11a" d="M25.333 14.667h-8v-8a1.334 1.334 0 0 0-2.668 0v8h-8a1.334 1.334 0 0 0 0 2.668h8v8a1.334 1.334 0 0 0 2.668 0v-8h8a1.334 1.334 0 0 0 0-2.668z" style="fill:var(--color1, #ffd11a)"/>
    </symbol>
    <symbol id="logo-text" viewBox="0 0 112 32">
      <path fill="#fff" d="M103.297 10.581h1.926v2.956l-.117 1.309h.117c.206-.343.5-.623.882-.838a2.574 2.574 0 0 1 1.309-.338c.932 0 1.618.274 2.059.824.451.549.676 1.299.676 2.25v4.368h-1.927V16.98c0-.5-.117-.878-.353-1.132-.235-.265-.563-.397-.985-.397-.265 0-.5.059-.706.176-.206.108-.383.26-.53.456a2.385 2.385 0 0 0-.324.691 3.184 3.184 0 0 0-.103.824v3.515h-1.926V10.584zM102.561 19.272a4.062 4.062 0 0 1-1.323 1.5c-.559.382-1.26.574-2.103.574a4.161 4.161 0 0 1-1.544-.279 3.778 3.778 0 0 1-1.206-.809 3.909 3.909 0 0 1-.794-1.206c-.186-.471-.28-.985-.28-1.544s.094-1.073.28-1.544c.196-.471.461-.873.794-1.206a3.582 3.582 0 0 1 1.206-.794 3.977 3.977 0 0 1 1.544-.294c.833 0 1.534.191 2.103.574s.985.877 1.25 1.485l-1.765.735c-.166-.333-.382-.583-.647-.75-.255-.176-.579-.265-.971-.265-.255 0-.495.049-.72.147s-.427.235-.603.412c-.167.176-.299.392-.397.647s-.147.539-.147.853.049.598.147.853c.098.255.23.471.397.647.176.177.377.314.603.412s.466.147.72.147c.402 0 .74-.088 1.015-.265.285-.186.51-.451.677-.794l1.764.765zM94.745 19.375a4.003 4.003 0 0 1-1.353 1.426c-.559.363-1.246.544-2.059.544a4.128 4.128 0 0 1-1.53-.279c-.461-.196-.863-.466-1.206-.809s-.612-.745-.809-1.206a4.165 4.165 0 0 1-.279-1.544c0-.52.093-1.01.279-1.471.186-.471.446-.877.779-1.221a3.751 3.751 0 0 1 1.176-.838 3.671 3.671 0 0 1 1.515-.309c.579 0 1.094.098 1.544.294.451.186.829.451 1.133.794.304.333.535.73.691 1.191s.235.961.235 1.5v.176a.976.976 0 0 0-.015.162.815.815 0 0 0-.014.162h-5.427c.04.294.118.549.235.765.127.206.28.382.456.529.186.137.387.24.603.309.215.059.436.088.661.088.442 0 .804-.098 1.089-.294.294-.206.525-.461.691-.765l1.603.794zm-1.75-2.794a1.18 1.18 0 0 0-.132-.426 1.32 1.32 0 0 0-.324-.441 1.59 1.59 0 0 0-.529-.338 1.907 1.907 0 0 0-.75-.132c-.412 0-.774.118-1.088.353s-.535.564-.662.985h3.486zM83.437 21.111v-8.647h-2.942v-1.882h7.868v1.882h-2.941v8.647h-1.985zM80.059 19.375a4.003 4.003 0 0 1-1.353 1.426c-.559.363-1.246.544-2.059.544a4.123 4.123 0 0 1-1.529-.279c-.461-.196-.863-.466-1.206-.809s-.613-.745-.809-1.206a4.165 4.165 0 0 1-.28-1.544c0-.52.094-1.01.28-1.471.186-.471.446-.877.779-1.221a3.729 3.729 0 0 1 1.176-.838 3.671 3.671 0 0 1 1.515-.309c.579 0 1.093.098 1.544.294.451.186.828.451 1.133.794.304.333.534.73.691 1.191s.235.961.235 1.5v.176a1.086 1.086 0 0 0-.014.162.812.812 0 0 0-.015.162h-5.426c.039.294.117.549.235.765.127.206.279.382.456.529.186.137.387.24.602.309.216.059.437.088.662.088.441 0 .804-.098 1.089-.294.294-.206.524-.461.691-.765l1.603.794zm-1.75-2.794a1.18 1.18 0 0 0-.132-.426 1.334 1.334 0 0 0-.324-.441 1.584 1.584 0 0 0-.53-.338 1.907 1.907 0 0 0-.75-.132c-.412 0-.774.118-1.088.353s-.535.564-.662.985h3.486zM68.135 13.905h1.809v1h.117c.088-.177.206-.338.353-.485s.309-.274.485-.382a2.57 2.57 0 0 1 .589-.25c.215-.059.426-.088.632-.088.255 0 .471.025.648.074.186.049.343.113.471.191l-.515 1.75a1.543 1.543 0 0 0-.397-.132 1.914 1.914 0 0 0-.515-.059c-.265 0-.504.054-.72.162-.216.098-.402.24-.559.426a2.233 2.233 0 0 0-.353.662 2.657 2.657 0 0 0-.118.809v3.529h-1.926v-7.206zM65.115 20.169h-.117c-.226.363-.53.652-.912.868a2.719 2.719 0 0 1-1.309.309c-.912 0-1.593-.279-2.044-.838-.441-.559-.662-1.304-.662-2.235v-4.368h1.926v4.132c0 .52.113.907.338 1.162.235.245.574.368 1.015.368.265 0 .495-.054.691-.162a1.65 1.65 0 0 0 .515-.456 1.96 1.96 0 0 0 .323-.676c.078-.265.118-.544.118-.838v-3.529h1.926v7.206h-1.809v-.941zM55.463 15.552h-1.265v-1.647h1.265v-2.206h1.926v2.206h1.765v1.647h-1.765v2.794c0 .167.015.323.044.471a.802.802 0 0 0 .206.353c.137.157.333.235.588.235.167 0 .299-.015.397-.044.098-.039.191-.088.279-.147l.544 1.691a2.927 2.927 0 0 1-.735.235 3.79 3.79 0 0 1-.853.088c-.363 0-.691-.054-.985-.162a2.184 2.184 0 0 1-.721-.471c-.461-.441-.691-1.069-.691-1.882v-3.162zM51.581 20.169h-.118a2.493 2.493 0 0 1-.912.868 2.716 2.716 0 0 1-1.309.309c-.912 0-1.593-.279-2.044-.838-.441-.559-.662-1.304-.662-2.235v-4.368h1.926v4.132c0 .52.113.907.338 1.162.235.245.574.368 1.015.368.265 0 .495-.054.691-.162.206-.118.377-.27.515-.456a1.98 1.98 0 0 0 .324-.676c.078-.265.118-.544.118-.838v-3.529h1.926v7.206H51.58v-.941zM39.358 10.581h6.676v1.882h-4.691v2.559h4.221v1.882h-4.221v4.206h-1.985V10.581z" style="fill:var(--color2, #fff)"/>
      <path fill="#ffd11a" d="M20.917 31.686v-5.229a5.222 5.222 0 0 0 5.229-5.229h5.229c0 5.786-4.688 10.458-10.458 10.458zM20.916 31.686v-5.229a5.222 5.222 0 0 1-5.229-5.229h-5.229c0 5.786 4.688 10.458 10.457 10.458zM0 21.229h5.229a5.222 5.222 0 0 0 5.229 5.229v5.229C4.689 31.687 0 27.016 0 21.23zM0 21.229h5.229A5.222 5.222 0 0 1 10.458 16v-5.229C4.689 10.771 0 15.459 0 21.229zM10.458.314v5.229a5.222 5.222 0 0 0-5.229 5.229H0C0 5.003 4.688.314 10.458.314zM10.458.314v5.229a5.222 5.222 0 0 1 5.229 5.229h5.229c0-5.769-4.688-10.458-10.457-10.458zM31.372 10.771h-5.229a5.222 5.222 0 0 0-5.229-5.229V.313c5.769 0 10.458 4.688 10.458 10.458z" style="fill:var(--color1, #ffd11a)"/>
      <path fill="#ffd11a" d="M31.372 10.771h-5.229A5.222 5.222 0 0 1 20.914 16v5.229c5.769 0 10.458-4.671 10.458-10.458z" style="fill:var(--color1, #ffd11a)"/>
    </symbol>
    <symbol id="logo" viewBox="0 0 32 32">
      <path fill="#ffd11a" d="M21.192 31.894v-5.298a5.292 5.292 0 0 0 5.298-5.298h5.298c0 5.863-4.75 10.596-10.596 10.596zM21.192 31.894v-5.298a5.291 5.291 0 0 1-5.298-5.298h-5.298c0 5.863 4.75 10.596 10.596 10.596zM0 21.298h5.298a5.291 5.291 0 0 0 5.298 5.298v5.298C4.751 31.894 0 27.161 0 21.298zM0 21.298h5.298A5.29 5.29 0 0 1 10.596 16v-5.298C4.751 10.702 0 15.452 0 21.298zM10.596.106v5.298a5.29 5.29 0 0 0-5.298 5.298H0C0 4.857 4.75.106 10.596.106zM10.596.106v5.298a5.29 5.29 0 0 1 5.298 5.298h5.298c0-5.845-4.75-10.596-10.596-10.596zM31.788 10.702H26.49a5.291 5.291 0 0 0-5.298-5.298V.106c5.845 0 10.596 4.75 10.596 10.596z" style="fill:var(--color1, #ffd11a)"/>
      <path fill="#ffd11a" d="M31.788 10.702H26.49A5.291 5.291 0 0 1 21.192 16v5.298c5.845 0 10.596-4.733 10.596-10.596z" style="fill:var(--color1, #ffd11a)"/>
    </symbol>
    <symbol id="icon-four-arrows-icon" viewBox="0 0 32 32">
      <path fill="#404040" d="M21.6 21.6c4.269-1.028 7.2-3.149 7.2-5.6s-2.931-4.572-7.2-5.6c.439 1.685.686 3.587.686 5.6s-.247 3.915-.686 5.6zM10.4 21.6c-4.269-1.028-7.2-3.149-7.2-5.6s2.931-4.572 7.2-5.6c-.439 1.685-.686 3.587-.686 5.6s.247 3.915.686 5.6z" style="fill:var(--color1, #404040)"/>
      <path fill="#ffd11a" d="M10.4 21.6c1.028 4.269 3.149 7.2 5.6 7.2s4.572-2.931 5.6-7.2c-1.685.439-3.587.686-5.6.686s-3.915-.247-5.6-.686zM10.4 10.4c1.028-4.269 3.149-7.2 5.6-7.2s4.572 2.931 5.6 7.2c-1.685-.439-3.587-.686-5.6-.686s-3.915.247-5.6.686z" style="fill:var(--color2, #ffd11a)"/>
    </symbol>
    <symbol id="icon-box-icon" viewBox="0 0 37 32">
      <path fill="#ffd11a" d="M8.584 22.107V32H28.39v-9.893H8.584z" style="fill:var(--color2, #ffd11a)"/>
      <path fill="#404040" d="m28.386 22.099 8.567-4.946L27.05.001l-8.567 4.946 9.903 17.152zM18.47 4.96 9.903.014 0 17.166l8.567 4.946L18.47 4.96z" style="fill:var(--color1, #404040)"/>
    </symbol>
    <symbol id="icon-two-arrows-iconon-2" viewBox="0 0 32 32">
      <path fill="#ffd11a" d="M15.012 18.37c0-4.547 13.245-12.641 12.621-9.608a47.648 47.648 0 0 0 0 19.216c.624 3.033-12.621-5.061-12.621-9.608z" style="fill:var(--color2, #ffd11a)"/>
      <path fill="#404040" d="M16.593 13.63c0 4.547-13.245 12.641-12.621 9.608a47.648 47.648 0 0 0 0-19.216C3.348.989 16.593 9.083 16.593 13.63z" style="fill:var(--color1, #404040)"/>
    </symbol>
    <symbol id="icon-eye" viewBox="0 0 31 32">
      <path fill="none" stroke="#ffd11a" stroke-linecap="round" stroke-linejoin="round" stroke-width="1.92" d="M27.652 14.499c.327.412.508.946.508 1.501s-.181 1.089-.508 1.501c-2.072 2.531-6.787 7.459-12.292 7.459S5.14 20.032 3.068 17.501c-.327-.412-.508-.946-.508-1.501s.181-1.089.508-1.501C5.14 11.968 9.855 7.04 15.36 7.04s10.22 4.928 12.292 7.459z" style="stroke:var(--color2, #ffd11a)"/>
      <path fill="none" stroke="#ffd11a" stroke-linecap="round" stroke-linejoin="round" stroke-width="1.92" d="M15.361 19.982c2.179 0 3.946-1.783 3.946-3.982s-1.767-3.982-3.946-3.982c-2.179 0-3.946 1.783-3.946 3.982s1.767 3.982 3.946 3.982z" style="stroke:var(--color2, #ffd11a)"/>
    </symbol>
    <symbol id="icon-dontknowwhatisit-icon" viewBox="0 0 32 32">
      <path fill="#ffd11a" d="M15.802 3.358v25.284L4.74 22.321V9.679l11.062-6.321z" style="fill:var(--color2, #ffd11a)"/>
      <path fill="#404040" d="M26.864 3.358v25.284l-11.062-6.321V9.679l11.062-6.321z" style="fill:var(--color1, #404040)"/>
    </symbol>
    <symbol id="icon-like" viewBox="0 0 31 32">
      <path d="m14.906 27.406-.008-.004-.029-.016-.105-.058a29.447 29.447 0 0 1-1.735-1.068 32.182 32.182 0 0 1-4.083-3.211c-2.945-2.745-6.065-6.824-6.065-11.848 0-3.748 3.153-6.72 6.96-6.72 2.239 0 4.243 1.023 5.52 2.626 1.277-1.603 3.281-2.626 5.52-2.626 3.807 0 6.96 2.972 6.96 6.72 0 5.024-3.12 9.103-6.065 11.848a32.182 32.182 0 0 1-5.433 4.058 14.545 14.545 0 0 1-.49.279l-.029.016-.008.004-.003.002a.966.966 0 0 1-.902 0l-.003-.002z"/>
    </symbol>
    <symbol id="icon-comment" viewBox="0 0 31 32">
      <path fill="none" stroke="#666" stroke-linecap="round" stroke-linejoin="round" stroke-width="1.92" d="M10.862 25.202a10.197 10.197 0 0 0 4.498 1.038c5.655 0 10.24-4.585 10.24-10.24S21.015 5.76 15.36 5.76 5.12 10.345 5.12 16c0 2.099.632 4.051 1.716 5.676m4.026 3.526L5.12 26.24l1.716-4.564m4.026 3.526.008-.001m-4.034-3.525.002-.004" style="stroke:var(--color3, #666)"/>
    </symbol>
    <symbol id="icon-telegram" viewBox="0 0 31 32">
      <path fill="none" stroke="#666" stroke-linecap="round" stroke-linejoin="round" stroke-width="1.92" d="M12.849 18.511 5.34 15.098c-1.033-.47-.989-1.953.07-2.36l18.782-7.224c1.035-.398 2.052.619 1.654 1.654L18.622 25.95c-.408 1.06-1.89 1.104-2.36.07l-3.413-7.509zm0 0 5.612-5.612" style="stroke:var(--color3, #666)"/>
    </symbol>
    <symbol id="icon-burger-menu" viewBox="0 0 31 32">
      <path fill="#fff" d="M3.886 9.2a.97.97 0 0 1 .971-.971h21.371a.97.97 0 1 1 0 1.942H4.857a.97.97 0 0 1-.971-.971zm0 6.8a.97.97 0 0 1 .971-.971h21.371a.97.97 0 1 1 0 1.942H4.857A.97.97 0 0 1 3.886 16zm10.685 6.8a.97.97 0 0 1 .971-.971h10.686a.97.97 0 1 1 0 1.942H15.542a.97.97 0 0 1-.971-.971z" style="fill:var(--color4, #fff)"/>
    </symbol>
    <symbol id="close" viewBox="0 0 32 32">
      <path d="M32 3.223 28.777 0 16 12.777 3.223 0 0 3.223 12.777 16 0 28.777 3.223 32 16 19.223 28.777 32 32 28.777 19.223 16 32 3.223z"/>
    </symbol>
    <symbol id="hero-icon1" viewBox="0 0 32 32">
      <path fill="#ffd11a" d="M18.514 22.027h-4.996V32h4.996v-9.973zM18.514 0h-4.996v9.973h4.996V0zM22.022 13.5v4.996h9.973V13.5h-9.973zM0 13.505v4.996h9.973v-4.996H0z" style="fill:var(--color1, #ffd11a)"/>
      <path fill="#404040" d="M22.032 18.481 18.5 22.013l7.052 7.052 3.532-3.532-7.052-7.052zM6.458 2.909 2.926 6.441l7.052 7.052 3.532-3.532-7.052-7.052zM18.487 9.977l3.532 3.532 7.052-7.052-3.532-3.532-7.052 7.052zM2.917 25.549l3.532 3.532 7.052-7.052-3.532-3.532-7.052 7.052z" style="fill:var(--color2, #404040)"/>
    </symbol>
    <symbol id="hero-icon2" viewBox="0 0 33 32">
      <path fill="#ffd11a" d="M16.213 22.4c0 3.535 2.865 6.4 6.4 6.4s6.4-2.865 6.4-6.4-2.865-6.4-6.4-6.4h-6.4v6.4zM16.213 9.6c0-3.535-2.865-6.4-6.4-6.4s-6.4 2.865-6.4 6.4a6.4 6.4 0 0 0 6.4 6.4h6.4V9.6z" style="fill:var(--color1, #ffd11a)"/>
      <path fill="#404040" d="M22.613 3.2a6.4 6.4 0 0 0-6.4 6.4V16h6.4c3.535 0 6.4-2.865 6.4-6.4s-2.865-6.4-6.4-6.4zm3.2 6.4a3.2 3.2 0 1 1-6.4 0 3.2 3.2 0 0 1 6.4 0zM9.813 28.8a6.4 6.4 0 0 0 6.4-6.4V16h-6.4c-3.535 0-6.4 2.865-6.4 6.4s2.865 6.4 6.4 6.4zm3.2-6.4a3.2 3.2 0 1 1-6.4 0 3.2 3.2 0 0 1 6.4 0z" style="fill:var(--color2, #404040)"/>
    </symbol>
    <symbol id="hero-icon3" viewBox="0 0 33 32">
      <path fill="#ffd11a" d="M3.627 3.2h12.8c7.069 0 12.8 5.731 12.8 12.8h-12.8c-7.069 0-12.8-5.731-12.8-12.8z" style="fill:var(--color1, #ffd11a)"/>
      <path fill="#404040" d="M3.627 16h12.8c7.069 0 12.8 5.731 12.8 12.8h-12.8c-7.069 0-12.8-5.731-12.8-12.8z" style="fill:var(--color2, #404040)"/>
    </symbol>
  </defs>
</svg>
